<?xml version="1.0" standalone="no"?><!DOCTYPE svg PUBLIC "-//W3C//DTD SVG 1.1//EN" "http://www.w3.org/Graphics/SVG/1.1/DTD/svg11.dtd"><svg t="1697103495641" class="icon" viewBox="0 0 1024 1024" version="1.1" xmlns="http://www.w3.org/2000/svg" p-id="3948" width="16" height="16" xmlns:xlink="http://www.w3.org/1999/xlink"><path d="M459.157491 153.423275l342.565053 357.143073-342.565053 357.144096c-14.57495 14.57495-14.57495 43.73099 0 65.594951 14.57802 14.579043 43.73099 21.868053 65.599044 0l386.296043-408.160004 0 0c7.290033 0 7.290033-7.290033 7.290033-14.579043 0-7.28901 0-14.57802-7.290033-14.57802l0 0L517.466502 87.824231c-14.57802-14.57495-43.73099-14.57495-65.599044 0C437.293531 102.402251 437.293531 131.556245 459.157491 153.423275L459.157491 153.423275zM459.157491 153.423275M575.776536 525.145391 575.776536 525.145391c7.28901 0 7.28901-7.290033 7.28901-14.579043 0-7.28901 0-14.57802-7.28901-14.57802l0 0L182.190459 87.824231c-14.57802-14.57495-43.73099-14.57495-65.599044 0-14.57802 14.57802-14.57802 43.73099 0 65.599044l349.854063 357.143073-342.565053 357.144096c-14.57802 14.57495-14.57802 43.73099 0 65.594951 14.57802 14.579043 43.73099 21.868053 65.599044 0L575.776536 525.145391 575.776536 525.145391zM575.776536 525.145391" fill="#ffffff" p-id="3949"></path></svg>